<svg id="calendar_1_" data-name="calendar (1)" xmlns="http://www.w3.org/2000/svg" width="24.026" height="21.117" viewBox="0 0 24.026 21.117">
  <path id="Caminho_47" data-name="Caminho 47" d="M.7,49.3H4.223v2.112a.7.7,0,0,0,.7.7H23.322a.7.7,0,0,0,.7-.7v-18.3a.7.7,0,0,0-.7-.7H19.8v-.7a.7.7,0,0,0-1.408,0v.7H14.828v-.7a.7.7,0,0,0-1.408,0v.7H9.9v-.7a.7.7,0,0,0-1.408,0v.7H4.927a.7.7,0,0,0-.7.7v4.223c0,5.188-2.156,9.178-3.97,10.721A.7.7,0,0,0,.7,49.3Zm21.914,1.408H5.631V49.3H19.1a.7.7,0,0,0,.451-.163,12.992,12.992,0,0,0,3.069-4.532ZM5.631,33.816H8.493v.7a.7.7,0,0,0,1.408,0v-.7h3.519v.7a.7.7,0,0,0,1.408,0v-.7h3.566v.7a.7.7,0,0,0,1.408,0v-.7h2.816v2.816H5.631Zm-.012,4.223H22.606a14.752,14.752,0,0,1-3.783,9.855H2.3a16.939,16.939,0,0,0,3.314-9.855Z" transform="translate(0 -31)" fill="#fff"/>
</svg>
