<svg id="default_instagram" data-name="default/instagram" xmlns="http://www.w3.org/2000/svg" width="24" height="24" viewBox="0 0 24 24">
  <g id="instagram_6_copy_4" data-name="instagram (6) copy 4">
    <path id="Combined_Shape" data-name="Combined Shape" d="M7.5,24A7.509,7.509,0,0,1,0,16.5v-9A7.508,7.508,0,0,1,7.5,0h9A7.509,7.509,0,0,1,24,7.5v9A7.51,7.51,0,0,1,16.5,24ZM2.25,7.5v9A5.256,5.256,0,0,0,7.5,21.75h9A5.256,5.256,0,0,0,21.75,16.5v-9A5.256,5.256,0,0,0,16.5,2.25h-9A5.256,5.256,0,0,0,2.25,7.5ZM6,12a6,6,0,1,1,6,6A6.006,6.006,0,0,1,6,12Zm2.25,0A3.75,3.75,0,1,0,12,8.25,3.754,3.754,0,0,0,8.25,12ZM17,5.5A1.5,1.5,0,1,1,18.5,7,1.5,1.5,0,0,1,17,5.5Z" fill="#fff"/>
  </g>
</svg>
