<svg xmlns="http://www.w3.org/2000/svg" width="11.767" height="21.801" viewBox="0 0 11.767 21.801">
  <g id="default_facebook" data-name="default/facebook" transform="translate(-0.017)">
    <g id="facebook-logo_1_copy_2" data-name="facebook-logo (1) copy 2" transform="translate(0.017)">
      <path id="Path" d="M11.323,0,8.5,0C5.33,0,3.281,2.106,3.281,5.365V7.839H.444A.444.444,0,0,0,0,8.284v3.584a.444.444,0,0,0,.444.445H3.281v9.044a.444.444,0,0,0,.444.445h3.7a.444.444,0,0,0,.444-.445V12.313h3.318a.444.444,0,0,0,.444-.445V8.284a.444.444,0,0,0-.444-.445H7.871v-2.1c0-1.008.24-1.52,1.55-1.52h1.9a.444.444,0,0,0,.444-.445V.449A.444.444,0,0,0,11.323,0Z" transform="translate(0)" fill="#fff"/>
    </g>
  </g>
</svg>
