<svg xmlns="http://www.w3.org/2000/svg" width="25.94" height="18.239" viewBox="0 0 25.94 18.239">
  <g id="mail" transform="translate(0 -76)">
    <g id="Grupo_36802" data-name="Grupo 36802" transform="translate(0 76)">
      <path id="Caminho_39055" data-name="Caminho 39055" d="M23.66,76H2.28A2.283,2.283,0,0,0,0,78.28V91.959a2.283,2.283,0,0,0,2.28,2.28H23.66a2.282,2.282,0,0,0,2.28-2.28V78.28A2.282,2.282,0,0,0,23.66,76Zm-.319,1.52-8.759,8.712a2.28,2.28,0,0,1-3.226,0L2.6,77.52ZM1.52,91.65V78.59l6.568,6.533ZM2.6,92.719,9.165,86.2l1.118,1.112a3.8,3.8,0,0,0,5.372,0L16.774,86.2l6.565,6.524ZM24.42,91.65l-6.568-6.526L24.42,78.59Z" transform="translate(0 -76)" fill="#fff"/>
    </g>
  </g>
</svg>
