<svg xmlns="http://www.w3.org/2000/svg" width="60" height="74.564" viewBox="0 0 60 74.564">
  <g id="male-user" transform="translate(-21.498)">
    <path id="Caminho_129" data-name="Caminho 129" d="M76.361,43.218l-.159-.179a11.538,11.538,0,0,0-4.722-3.062l-.376-.11a53.9,53.9,0,0,0-5.376-2.082c-.52-.169-.951-.349-1.3-.5-2.7-1.306-3.056-2.07-3.111-2.243l-.139-.311.124-.287a19.1,19.1,0,0,0,4-8.088l.084-.191a5.026,5.026,0,0,0,1.055-2.405c.639-2.28.672-3.951.1-5.118l-.063-.126.032-.136c.72-2.949,1.412-8.476-2.041-12.325a13.573,13.573,0,0,0-6.768-4.147l-2.008-.674A28.137,28.137,0,0,0,49.976,0a2.735,2.735,0,0,0-.689.088l-.271.043a6.1,6.1,0,0,0-2.728.437c-1.16.476-7.034,3.14-8.894,8.789-.309.8-.939,3.24-.121,8.584l.024.163-.1.132c-.835,1.094-.9,2.877-.2,5.285a5.4,5.4,0,0,0,1.056,2.558l.094.194a18.582,18.582,0,0,0,3.667,7.989l.175.23-.167.235a.925.925,0,0,0-.149.318c-.469,1.312-5.695,3.6-10.278,4.974a10.657,10.657,0,0,0-4.752,3.221c-4.545,6.61-5.119,20.8-5.143,21.415.072,3.691,1.781,4.443,2.111,4.55l.288.126c10.046,4.3,24.717,5.136,26.36,5.219l.513.016c.492,0,.987-.027,1.453-.05l.04,0,.151.012a1.3,1.3,0,0,0,.322.042h.071c.668-.034,16.421-.911,26.252-5.242.713-.182,2.379-1.016,2.44-4.772C81.475,63.944,80.817,49.721,76.361,43.218ZM43.317,36.51l.273-.25.271.253a11.5,11.5,0,0,0,7.5,3.449,11.952,11.952,0,0,0,7.608-3.139l.2-.17.532.254a9.525,9.525,0,0,0,1.624,1.16l.5.239-.055.054.195.114c.458.266.947.523,1.506.8.568.244,1.052.429,1.561.6A52.141,52.141,0,0,1,70.273,41.9l.488.148A8.879,8.879,0,0,1,74.5,44.438c4.032,5.868,4.713,18.689,4.778,20.123-.031,2.009-.61,2.522-.767,2.624-9.038,3.969-22.694,5-25.336,5.165l-.075,0-.076-.021a.907.907,0,0,0-.292-.041h0l-.091,0c-.724.048-1.322.072-1.88.072h-.436c-1.649-.094-16.371-1.044-25.8-5.157-.192-.076-.749-.706-.788-2.548,0-.136.484-13.973,4.718-20.14a8.72,8.72,0,0,1,3.659-2.434c2.022-.612,7.023-2.238,9.759-4.181a1.767,1.767,0,0,0,.349-.3C42.419,37.391,42.835,36.952,43.317,36.51Zm-4.3-16.978.095-.106a1.106,1.106,0,0,0,.476-1.092c-.917-5.426-.317-7.686-.111-8.255C41.083,5.259,46.13,3,47.121,2.6a5.354,5.354,0,0,1,1-.259l.1-.022.836-.046,0,.048.179-.016a5.019,5.019,0,0,0,.518-.079l.192-.043a28.723,28.723,0,0,1,5.039,1.123l2.025.682a11.323,11.323,0,0,1,5.73,3.478c2.968,3.3,2.176,8.283,1.439,10.959a1.075,1.075,0,0,0,.147.891l.164.209c.271.353.373,1.542-.233,3.748a3.02,3.02,0,0,1-.8,1.692,1.16,1.16,0,0,0-.283.577c-1,5.771-6.274,12.227-11.829,12.227-4.723,0-10.106-5.942-11.074-12.223a1.133,1.133,0,0,0-.3-.608,3.424,3.424,0,0,1-.817-1.878C38.7,21.414,38.652,20.085,39.021,19.532Z" fill="#171f38"/>
  </g>
</svg>
