<svg xmlns="http://www.w3.org/2000/svg" width="24.871" height="20.208" viewBox="0 0 24.871 20.208">
  <g id="twitter" transform="translate(0 -48)">
    <g id="Grupo_36801" data-name="Grupo 36801" transform="translate(0 48)">
      <path id="Caminho_39054" data-name="Caminho 39054" d="M24.871,50.392a10.631,10.631,0,0,1-2.938.805,5.07,5.07,0,0,0,2.243-2.818,10.19,10.19,0,0,1-3.233,1.234,5.1,5.1,0,0,0-8.82,3.487,5.25,5.25,0,0,0,.118,1.163A14.432,14.432,0,0,1,1.732,48.93,5.1,5.1,0,0,0,3.3,55.744a5.035,5.035,0,0,1-2.3-.628v.056a5.122,5.122,0,0,0,4.085,5.01,5.089,5.089,0,0,1-1.337.168,4.508,4.508,0,0,1-.965-.087,5.147,5.147,0,0,0,4.764,3.552A10.245,10.245,0,0,1,1.22,65.989,9.549,9.549,0,0,1,0,65.919a14.354,14.354,0,0,0,7.822,2.288A14.412,14.412,0,0,0,22.334,53.7c0-.225-.008-.443-.019-.659A10.172,10.172,0,0,0,24.871,50.392Z" transform="translate(0 -48)" fill="#fff"/>
    </g>
  </g>
</svg>
