<svg xmlns="http://www.w3.org/2000/svg" width="60" height="55.672" viewBox="0 0 60 55.672">
  <g id="venn-diagram" transform="translate(0 -16)">
    <g id="Grupo_9072" data-name="Grupo 9072" transform="translate(0 16)">
      <path id="Caminho_137" data-name="Caminho 137" d="M49.332,35.463a19.332,19.332,0,1,0-38.663,0,19.084,19.084,0,0,0,8.785,36.209A19.366,19.366,0,0,0,30,68.566,19.457,19.457,0,0,0,60,52.535,19.127,19.127,0,0,0,49.332,35.463ZM30,19.479A15.772,15.772,0,0,1,45.785,34.1a19.7,19.7,0,0,0-5.238-.706A19.366,19.366,0,0,0,30,36.5,19.366,19.366,0,0,0,19.453,33.4a19.7,19.7,0,0,0-5.238.706A15.772,15.772,0,0,1,30,19.479Zm0,21.4a15.607,15.607,0,0,1,5.061,9.1,16,16,0,0,1-10.121,0A15.608,15.608,0,0,1,30,40.875Zm-8.341,7.561a15.687,15.687,0,0,1-7.268-10.749,16.13,16.13,0,0,1,5.062-.81,15.85,15.85,0,0,1,7.624,1.942A19.078,19.078,0,0,0,21.659,48.436Zm11.264-9.617a15.85,15.85,0,0,1,7.624-1.942,16.131,16.131,0,0,1,5.063.81,15.687,15.687,0,0,1-7.268,10.749A19.078,19.078,0,0,0,32.923,38.819ZM19.453,68.192A15.817,15.817,0,0,1,3.516,52.535,15.6,15.6,0,0,1,11.1,39.2a19.238,19.238,0,0,0,10.111,12.98A18.975,18.975,0,0,0,27.077,66.25,15.851,15.851,0,0,1,19.453,68.192Zm10.547-4A15.569,15.569,0,0,1,24.761,53.56a19.57,19.57,0,0,0,10.477,0A15.569,15.569,0,0,1,30,64.194Zm10.547,4a15.85,15.85,0,0,1-7.624-1.942,18.975,18.975,0,0,0,5.862-14.067A19.238,19.238,0,0,0,48.9,39.2a15.605,15.605,0,0,1,7.589,13.332A15.817,15.817,0,0,1,40.547,68.192Z" transform="translate(0 -16)" fill="#171f38"/>
    </g>
  </g>
</svg>
