<svg xmlns="http://www.w3.org/2000/svg" width="21.063" height="21.164" viewBox="0 0 21.063 21.164">
  <path id="whatsapp" d="M18.244,3.076A10.49,10.49,0,0,0,1.738,15.729L.25,21.164l5.559-1.458a10.476,10.476,0,0,0,5.012,1.276h0A10.492,10.492,0,0,0,18.244,3.076ZM10.825,19.211h0A8.706,8.706,0,0,1,6.385,18l-.318-.189-3.3.865.881-3.217-.207-.33a8.717,8.717,0,1,1,7.384,4.085Zm4.781-6.528c-.262-.131-1.55-.765-1.791-.853s-.415-.131-.589.131-.677.853-.83,1.027-.306.2-.568.066a7.157,7.157,0,0,1-2.107-1.3A7.9,7.9,0,0,1,8.264,9.938c-.153-.262,0-.391.115-.535a7.412,7.412,0,0,0,.655-.9.482.482,0,0,0-.022-.459C8.946,7.917,8.422,6.627,8.2,6.1s-.429-.442-.59-.45-.327-.009-.5-.009a.962.962,0,0,0-.7.328A2.939,2.939,0,0,0,5.5,8.157a5.1,5.1,0,0,0,1.07,2.711,11.68,11.68,0,0,0,4.476,3.957,15,15,0,0,0,1.494.552,3.592,3.592,0,0,0,1.65.1,2.7,2.7,0,0,0,1.769-1.246,2.189,2.189,0,0,0,.153-1.246c-.065-.109-.24-.175-.5-.306Zm0,0" transform="translate(-0.25)" fill="#fff" fill-rule="evenodd"/>
</svg>
