<svg xmlns="http://www.w3.org/2000/svg" width="25.089" height="17.566" viewBox="0 0 25.089 17.566">
  <path id="youtube" d="M24.573-3.333a3.143,3.143,0,0,0-2.211-2.212c-1.963-.537-9.817-.537-9.817-.537s-7.853,0-9.816.517A3.207,3.207,0,0,0,.517-3.333,33.12,33.12,0,0,0,0,2.7,33,33,0,0,0,.517,8.736a3.144,3.144,0,0,0,2.211,2.211c1.984.537,9.817.537,9.817.537s7.853,0,9.816-.517a3.143,3.143,0,0,0,2.212-2.211,33.13,33.13,0,0,0,.517-6.035,31.439,31.439,0,0,0-.517-6.055Zm-14.528,9.8V-1.06L16.575,2.7Zm0,0" transform="translate(-0.001 6.082)" fill="#fff"/>
</svg>
